<?xml version="1.0" encoding="UTF-8" standalone="no"?>
<svg
   width="1280"
   height="720"
   overflow="hidden"
   version="1.1"
   id="svg29"
   sodipodi:docname="Slide2.svg"
   inkscape:version="1.1.1 (3bf5ae0d25, 2021-09-20)"
   xmlns:inkscape="http://www.inkscape.org/namespaces/inkscape"
   xmlns:sodipodi="http://sodipodi.sourceforge.net/DTD/sodipodi-0.dtd"
   xmlns="http://www.w3.org/2000/svg"
   xmlns:svg="http://www.w3.org/2000/svg">
  <sodipodi:namedview
     id="namedview31"
     pagecolor="#ffffff"
     bordercolor="#666666"
     borderopacity="1.0"
     inkscape:pageshadow="2"
     inkscape:pageopacity="0.0"
     inkscape:pagecheckerboard="0"
     showgrid="false"
     inkscape:zoom="0.59441164"
     inkscape:cx="722.56324"
     inkscape:cy="54.675915"
     inkscape:window-width="1920"
     inkscape:window-height="1129"
     inkscape:window-x="1192"
     inkscape:window-y="1354"
     inkscape:window-maximized="1"
     inkscape:current-layer="g27" />
  <defs
     id="defs5">
    <clipPath
       id="clip0">
      <rect
         x="0"
         y="0"
         width="1280"
         height="720"
         id="rect2" />
    </clipPath>
  </defs>
  <g
     clip-path="url(#clip0)"
     id="g27">
    <path
       d="M7.67371e-07-4 527.254-3.9999 527.254 4.0001-7.67371e-07 4ZM523.255-11.9999 547.255 0.000104987 523.255 12.0001Z"
       transform="matrix(1 0 0 -1 366 498)"
       id="path9" />
    <path
       d="M2.60254-3.03756 261.042 218.39 255.837 224.466-2.60254 3.03756ZM263.209 209.713 273.627 234.441 247.594 227.938Z"
       id="path11"
       transform="matrix(1 0 0 -1 215 412.441)" />
    <path
       d="M793.603 174.962 1052.04 396.39 1046.84 402.465 788.397 181.038ZM1054.21 387.713 1064.63 412.441 1038.59 405.938Z"
       id="path13" />
    <rect
       x="489"
       y="93"
       width="302"
       height="170"
       fill="#4472C4"
       id="rect15" />
    <text
       fill="#FFFFFF"
       font-family="Calibri,Calibri_MSFontService,sans-serif"
       font-weight="400"
       font-size="88"
       id="text17"
       transform="translate(602.417 207)">M</text>
    <rect
       x="64"
       y="413"
       width="302"
       height="170"
       fill="#4472C4"
       id="rect19" />
    <text
       fill="#FFFFFF"
       font-family="Calibri,Calibri_MSFontService,sans-serif"
       font-weight="400"
       font-size="88"
       transform="translate(192.217 527)"
       id="text21">X</text>
    <rect
       x="914"
       y="413"
       width="302"
       height="170"
       fill="#4472C4"
       id="rect23" />
    <text
       fill="#FFFFFF"
       font-family="Calibri,Calibri_MSFontService,sans-serif"
       font-weight="400"
       font-size="88"
       transform="translate(1043.53 527)"
       id="text25">Y</text>
  </g>
</svg>
